<svg xmlns="http://www.w3.org/2000/svg" width="500" height="500" viewBox="0 0 500 500" version="1.1"><path d="M 258 148.436 C 211.191 158.291, 179.893 195.929, 179.926 242.325 C 179.936 256.511, 179.375 255.721, 191.161 258.135 C 206.860 261.351, 206.439 260.399, 206.795 293.518 C 207.133 324.944, 206.862 324.593, 225.250 317.464 C 226.692 316.905, 227 317.346, 227 319.970 C 227 330.723, 245.138 332.261, 261.622 322.907 C 267.527 319.555, 268 319.454, 268 321.540 C 268 322.387, 268.859 324.749, 269.908 326.790 C 277.834 342.199, 299.819 339.602, 299.978 323.238 C 299.998 321.157, 300.442 321.337, 305.556 325.502 C 331.156 346.354, 385.646 347.031, 366.240 326.256 C 363.380 323.195, 363.380 323.195, 376.440 323.347 C 394.244 323.555, 401 320.992, 401 314.031 C 401 308.578, 394.439 303.926, 382 300.559 C 364.652 295.864, 363.115 293.479, 368.040 278.910 C 392.472 206.648, 330.502 133.171, 258 148.436 M 239.844 197.337 C 198.978 212.572, 207.873 272.500, 251 272.500 C 300.260 272.500, 301.725 198.074, 252.500 196.298 C 246.607 196.086, 242.238 196.444, 239.844 197.337 M 238 220.657 C 234.909 222.150, 234.755 222.393, 236.677 222.734 C 241.509 223.591, 242.943 230.008, 239.014 233.190 C 236.106 235.544, 233.482 235.482, 231 233 C 228.386 230.386, 228.333 230.409, 227.569 234.485 C 223.981 253.607, 253.102 264.203, 261.062 246.672 C 268.460 230.378, 253.296 213.272, 238 220.657 M 114.521 252.388 C 109.797 257.112, 109.228 311.766, 113.838 317.997 C 115.124 319.735, 116.024 321.257, 115.838 321.380 C 115.652 321.502, 112.863 322.129, 109.640 322.772 C 93.902 325.911, 90.612 333.752, 104.248 335.621 C 109.828 336.385, 113.010 333.715, 108.544 332.017 C 107.073 331.457, 104.774 331, 103.435 331 C 95.572 331, 103.806 327.472, 114.928 326.075 C 132.442 323.876, 150.230 332.277, 136.357 336.195 C 131.444 337.583, 129.297 339.726, 130.272 342.267 C 132.164 347.196, 167.519 352.201, 178.151 349.045 C 185.199 346.952, 182.990 341.721, 174.523 340.451 C 170.191 339.802, 167 337.925, 167 336.028 C 167 335.146, 174.355 336.647, 198.407 342.438 C 209.562 345.124, 214.472 345.874, 217.917 345.417 C 222.521 344.806, 222.521 344.806, 224.680 349.916 C 228.238 358.337, 242.510 361.907, 255 357.500 C 257.338 356.675, 261.781 356, 264.872 356 C 277.290 356, 289.550 350.014, 286.541 345.421 C 279.930 335.332, 253.168 339.635, 255.236 350.455 C 256.269 355.860, 235.690 357.148, 230.547 352 C 225.799 347.248, 226.032 343.326, 231.139 342.034 C 246.304 338.200, 244.250 334.680, 224 329.801 C 205.348 325.307, 207 325.406, 207 328.777 C 207 332.470, 204.711 335.557, 201.017 336.844 C 198.003 337.895, 198.003 337.895, 199.501 334.997 C 200.738 332.606, 201 326.695, 201 301.185 C 201 262.316, 202.542 265.262, 180 261.057 C 174.225 259.979, 158.613 257.051, 145.307 254.549 C 117.120 249.249, 117.625 249.285, 114.521 252.388 M 150.831 286.538 C 147.343 288.421, 145.544 293.668, 147.037 297.606 C 149.806 304.914, 155.936 307.155, 160.545 302.545 C 167.324 295.767, 159.035 282.109, 150.831 286.538" stroke="none" fill="#28303a" fill-rule="evenodd"/><path d="M 0 250.002 C 0 500.004, 0 500.004, 250.250 499.752 C 500.500 499.500, 500.500 499.500, 500.752 249.750 C 501.004 0, 501.004 0, 250.502 0 C 0 0, 0 0, 0 250.002 M 0.492 250.500 C 0.492 388, 0.608 444.101, 0.750 375.170 C 0.892 306.238, 0.892 193.738, 0.750 125.170 C 0.608 56.601, 0.492 113, 0.492 250.500 M 258 148.436 C 211.191 158.291, 179.893 195.929, 179.926 242.325 C 179.936 256.511, 179.375 255.721, 191.161 258.135 C 206.860 261.351, 206.439 260.399, 206.795 293.518 C 207.133 324.944, 206.862 324.593, 225.250 317.464 C 226.692 316.905, 227 317.346, 227 319.970 C 227 330.723, 245.138 332.261, 261.622 322.907 C 267.527 319.555, 268 319.454, 268 321.540 C 268 322.387, 268.859 324.749, 269.908 326.790 C 277.834 342.199, 299.819 339.602, 299.978 323.238 C 299.998 321.157, 300.442 321.337, 305.556 325.502 C 331.156 346.354, 385.646 347.031, 366.240 326.256 C 363.380 323.195, 363.380 323.195, 376.440 323.347 C 394.244 323.555, 401 320.992, 401 314.031 C 401 308.578, 394.439 303.926, 382 300.559 C 364.652 295.864, 363.115 293.479, 368.040 278.910 C 392.472 206.648, 330.502 133.171, 258 148.436 M 239.844 197.337 C 198.978 212.572, 207.873 272.500, 251 272.500 C 300.260 272.500, 301.725 198.074, 252.500 196.298 C 246.607 196.086, 242.238 196.444, 239.844 197.337 M 238 220.657 C 234.909 222.150, 234.755 222.393, 236.677 222.734 C 241.509 223.591, 242.943 230.008, 239.014 233.190 C 236.106 235.544, 233.482 235.482, 231 233 C 228.386 230.386, 228.333 230.409, 227.569 234.485 C 223.981 253.607, 253.102 264.203, 261.062 246.672 C 268.460 230.378, 253.296 213.272, 238 220.657 M 114.521 252.388 C 109.797 257.112, 109.228 311.766, 113.838 317.997 C 115.124 319.735, 116.024 321.257, 115.838 321.380 C 115.652 321.502, 112.863 322.129, 109.640 322.772 C 93.902 325.911, 90.612 333.752, 104.248 335.621 C 109.828 336.385, 113.010 333.715, 108.544 332.017 C 107.073 331.457, 104.774 331, 103.435 331 C 95.572 331, 103.806 327.472, 114.928 326.075 C 132.442 323.876, 150.230 332.277, 136.357 336.195 C 131.444 337.583, 129.297 339.726, 130.272 342.267 C 132.164 347.196, 167.519 352.201, 178.151 349.045 C 185.199 346.952, 182.990 341.721, 174.523 340.451 C 170.191 339.802, 167 337.925, 167 336.028 C 167 335.146, 174.355 336.647, 198.407 342.438 C 209.562 345.124, 214.472 345.874, 217.917 345.417 C 222.521 344.806, 222.521 344.806, 224.680 349.916 C 228.238 358.337, 242.510 361.907, 255 357.500 C 257.338 356.675, 261.781 356, 264.872 356 C 277.290 356, 289.550 350.014, 286.541 345.421 C 279.930 335.332, 253.168 339.635, 255.236 350.455 C 256.269 355.860, 235.690 357.148, 230.547 352 C 225.799 347.248, 226.032 343.326, 231.139 342.034 C 246.304 338.200, 244.250 334.680, 224 329.801 C 205.348 325.307, 207 325.406, 207 328.777 C 207 332.470, 204.711 335.557, 201.017 336.844 C 198.003 337.895, 198.003 337.895, 199.501 334.997 C 200.738 332.606, 201 326.695, 201 301.185 C 201 262.316, 202.542 265.262, 180 261.057 C 174.225 259.979, 158.613 257.051, 145.307 254.549 C 117.120 249.249, 117.625 249.285, 114.521 252.388 M 150.831 286.538 C 147.343 288.421, 145.544 293.668, 147.037 297.606 C 149.806 304.914, 155.936 307.155, 160.545 302.545 C 167.324 295.767, 159.035 282.109, 150.831 286.538" stroke="none" fill="#dbc8bc" fill-rule="evenodd"/></svg>